<mxfile host="app.diagrams.net" modified="2024-01-08T01:46:22.863Z" agent="Mozilla/5.0 (Macintosh; Intel Mac OS X 10_15_7) AppleWebKit/537.36 (KHTML, like Gecko) Chrome/120.0.0.0 Safari/537.36" version="22.1.15" etag="SPzPV0qlDlS8AhbE-nL3" type="github">
  <diagram name="第 1 页" id="c3CVn7U9iT80IM2gGRh5">
    <mxGraphModel>
      <root>
        <mxCell id="0" />
        <mxCell id="1" parent="0" />
      </root>
    </mxGraphModel>
  </diagram>
</mxfile>
